<svg width="19" height="19" viewBox="0 0 19 19" fill="none" xmlns="http://www.w3.org/2000/svg">
<g clip-path="url(#clip0_4358_7119)">
<path d="M18.4136 12.8243L16.3553 5.40561C15.9157 3.81865 14.958 2.42431 13.6345 1.4445C12.3111 0.46469 10.6979 -0.0442794 9.05173 -0.00140297C7.40559 0.0414734 5.82109 0.633731 4.55041 1.68111C3.27973 2.72849 2.39589 4.1708 2.03957 5.77849L0.44753 12.9431C0.370495 13.2902 0.372374 13.6501 0.453028 13.9964C0.533683 14.3427 0.691054 14.6664 0.913532 14.9438C1.13601 15.2211 1.41792 15.445 1.73846 15.5988C2.05899 15.7527 2.40998 15.8326 2.76553 15.8327H5.62107C5.80277 16.7275 6.28823 17.5319 6.9952 18.1098C7.70217 18.6876 8.58716 19.0033 9.50024 19.0033C10.4133 19.0033 11.2983 18.6876 12.0053 18.1098C12.7122 17.5319 13.1977 16.7275 13.3794 15.8327H16.1265C16.4923 15.8325 16.8532 15.7478 17.1809 15.5852C17.5086 15.4226 17.7944 15.1865 18.0158 14.8954C18.2373 14.6042 18.3885 14.2658 18.4576 13.9065C18.5267 13.5473 18.5112 13.1769 18.4136 12.8243ZM9.50024 17.416C9.01078 17.414 8.5339 17.2608 8.13485 16.9773C7.7358 16.6939 7.43405 16.2941 7.2709 15.8327H11.7296C11.5664 16.2941 11.2647 16.6939 10.8656 16.9773C10.4666 17.2608 9.98969 17.414 9.50024 17.416ZM16.7559 13.9366C16.682 14.0345 16.5863 14.1138 16.4763 14.1681C16.3663 14.2224 16.2452 14.2502 16.1225 14.2493H2.76553C2.64699 14.2493 2.52996 14.2227 2.42309 14.1714C2.31622 14.1201 2.22224 14.0454 2.14807 13.9529C2.07391 13.8605 2.02146 13.7525 1.99459 13.6371C1.96773 13.5216 1.96714 13.4016 1.99286 13.2859L3.5849 6.12128C3.86543 4.85953 4.55969 3.72776 5.55731 2.90589C6.55492 2.08401 7.79865 1.61921 9.09077 1.58536C10.3829 1.55151 11.6492 1.95056 12.6885 2.71907C13.7278 3.48758 14.4804 4.58145 14.8266 5.82678L16.8849 13.2455C16.9185 13.3628 16.9243 13.4863 16.9019 13.6063C16.8796 13.7262 16.8295 13.8393 16.7559 13.9366Z" fill="#F38B4A" fill-opacity="0.6"/>
</g>
<defs>
<clipPath id="clip0_4358_7119">
<rect width="19" height="19" fill="white"/>
</clipPath>
</defs>
</svg>
