<svg width="24" height="24" viewBox="0 0 24 24" fill="none" xmlns="http://www.w3.org/2000/svg">
<path d="M20.9429 4.12098C20.7789 2.82198 19.7699 1.76398 18.4889 1.54698C14.1819 0.818977 9.81689 0.818977 5.50989 1.54698C4.22889 1.76298 3.21989 2.82198 3.05589 4.12198C2.41489 9.24798 2.38989 14.445 2.98289 19.569C3.05989 20.237 3.41989 20.852 3.96689 21.253C4.36789 21.548 4.76589 21.844 5.15989 22.138C5.93689 22.719 6.97989 22.786 7.81389 22.31C8.15989 22.113 8.51089 21.908 8.86589 21.696C9.02389 21.6 9.22489 21.606 9.37789 21.711L10.6239 22.573C11.0399 22.86 11.5169 23.003 11.9919 23.003C12.4669 23.003 12.9439 22.86 13.3579 22.574L14.6069 21.711C14.7569 21.607 14.9559 21.601 15.1169 21.696C15.4749 21.909 15.8289 22.115 16.1769 22.313C17.0119 22.788 18.0519 22.72 18.8279 22.142C19.2249 21.846 19.6259 21.549 20.0279 21.253C20.5779 20.851 20.9379 20.236 21.0149 19.566C21.6079 14.443 21.5819 9.24698 20.9419 4.12098H20.9429ZM19.0299 19.337C19.0159 19.453 18.9489 19.566 18.8469 19.64C18.4389 19.94 18.0349 20.24 17.6329 20.538C17.4929 20.643 17.3109 20.656 17.1659 20.575C16.8289 20.383 16.4869 20.184 16.1419 19.978C15.3089 19.482 14.2589 19.517 13.4659 20.069L12.2239 20.928C12.0799 21.027 11.9029 21.027 11.7589 20.928L10.5189 20.07C9.72589 19.519 8.67389 19.483 7.83989 19.98C7.49789 20.185 7.15789 20.383 6.82389 20.574C6.67889 20.656 6.49589 20.641 6.35489 20.536C5.95689 20.239 5.55489 19.94 5.14989 19.641C5.04889 19.568 4.98189 19.455 4.96789 19.339C4.39489 14.374 4.41789 9.33798 5.03889 4.37098C5.09389 3.93998 5.42389 3.58998 5.84289 3.51898C9.92689 2.82998 14.0699 2.82998 18.1539 3.51898C18.5729 3.58998 18.9029 3.93998 18.9579 4.36998C19.5789 9.33698 19.6029 14.373 19.0289 19.337H19.0299Z" fill="#6F767E"/>
<path d="M15.5 5.81787H8.5C7.947 5.81787 7.5 6.26587 7.5 6.81787C7.5 7.36987 7.947 7.81787 8.5 7.81787H15.5C16.053 7.81787 16.5 7.36987 16.5 6.81787C16.5 6.26587 16.053 5.81787 15.5 5.81787Z" fill="#6F767E"/>
<path d="M15.5 9.99902H8.5C7.947 9.99902 7.5 10.447 7.5 10.999C7.5 11.551 7.947 11.999 8.5 11.999H15.5C16.053 11.999 16.5 11.551 16.5 10.999C16.5 10.447 16.053 9.99902 15.5 9.99902Z" fill="#6F767E"/>
<path d="M12.159 14.1802H8.5C7.947 14.1802 7.5 14.6282 7.5 15.1802C7.5 15.7322 7.947 16.1802 8.5 16.1802H12.159C12.712 16.1802 13.159 15.7322 13.159 15.1802C13.159 14.6282 12.712 14.1802 12.159 14.1802Z" fill="#6F767E"/>
</svg>
